<?xml version="1.0" encoding="UTF-8"?>
<svg width="234px" height="234px" viewBox="0 0 234 234" version="1.1" xmlns="http://www.w3.org/2000/svg" xmlns:xlink="http://www.w3.org/1999/xlink">
    <!-- Generator: Sketch 57.1 (83088) - https://sketch.com -->
    <title>standard/180-default/background/laurel</title>
    <desc>Created with Sketch.</desc>
    <g id="Symbols" stroke="none" stroke-width="1" fill="none" fill-rule="evenodd">
        <g id="standard/234-large/background/laurel">
            <g id="standard/180-default/background/laurel">
                <g id="laurel">
                    <circle id="background" fill="#0E3128" cx="117" cy="117" r="117"></circle>
                    <g id="icon" transform="translate(50.700000, 58.500000)" fill-rule="nonzero">
                        <g id="number-1" transform="translate(32.526000, 22.438000)">
                            <circle id="Oval" fill="#64A1C6" cx="33.8" cy="33.8" r="33.8"></circle>
                            <circle id="Oval" fill="#FFFFFF" cx="33.8" cy="33.8" r="27.3"></circle>
                            <path d="M42.874,42.003 L42.874,46.8 L25.155,46.8 L25.155,42.003 L31.46,42.003 L31.46,26.403 C29.8495036,27.3540211 28.1353191,28.1173348 26.351,28.678 L24.674,23.998 C28.0585791,22.6358586 31.1681898,20.6714303 33.852,18.2 L37.193,18.837 L37.193,42.003 L42.874,42.003 Z" id="Path" fill="#417369"></path>
                        </g>
                        <g id="laurel" transform="translate(0.650000, 0.450684)" fill="#40A829">
                            <path d="M74.295,112.19 C80.028,117.221 88.426,116.974 88.426,116.974 C88.426,116.974 87.503,108.576 81.757,103.558 C76.011,98.54 67.6,98.774 67.6,98.774 C67.6,98.774 68.549,107.172 74.295,112.19 Z" id="right-6"></path>
                            <path d="M105.781,87.126 C120.341,88.218 127.426,91.325 127.426,91.325 C127.426,91.325 112.411,103.207 101.946,105.066 C91.481,106.925 83.226,95.602 83.226,95.602 C83.226,95.602 95.199,86.32 105.781,87.126 Z" id="right-5"></path>
                            <path d="M110.708,64.779 C122.941,59.345 130.026,58.474 130.026,58.474 C130.026,58.474 123.136,73.138 115.505,78.897 C107.874,84.656 96.2,80.236 96.2,80.236 C96.2,80.236 101.803,68.744 110.708,64.779 Z" id="right-4"></path>
                            <path d="M107.9,41.236 C111.640829,35.8106414 116.521153,31.2675038 122.2,27.924 C122.2,27.924 122.2,42.471 118.3,49.816 C114.4,57.161 104.39,60.424 104.39,60.424 C104.39,60.424 102.388,48.867 107.9,41.236 Z" id="right-3"></path>
                            <path d="M97.877,26.247 C99.177,20.592 100.854,19.942 104.377,11.674 C104.377,11.674 109.018,22.373 107.731,28.808 C106.999718,32.5645483 104.65034,35.8080219 101.309,37.674 C98.1897232,34.7615626 96.8786076,30.3961436 97.877,26.247 Z" id="right-2"></path>
                            <path d="M83.044,14.781 C84.6075484,18.7078339 87.7208069,21.8163897 91.65,23.374 C92.6872489,18.9597802 92.4893532,14.3452115 91.078,10.036 C89.4055106,5.95140084 86.5542948,2.45752999 82.888,0 C82.888,0 80.6,8.32 83.044,14.781 Z" id="right-1"></path>
                            <path d="M55.757,112.19 C50.024,117.221 41.6,116.974 41.6,116.974 C41.6,116.974 42.523,108.576 48.269,103.558 C54.015,98.54 62.4,98.774 62.4,98.774 C62.4,98.774 61.503,107.172 55.757,112.19 Z" id="left-6"></path>
                            <path d="M24.271,87.126 C9.711,88.218 2.626,91.325 2.626,91.325 C2.626,91.325 17.641,103.207 28.106,105.066 C38.571,106.925 46.8,95.602 46.8,95.602 C46.8,95.602 34.853,86.32 24.271,87.126 Z" id="left-5"></path>
                            <path d="M19.344,64.779 C7.111,59.345 0,58.474 0,58.474 C0,58.474 6.89,73.138 14.521,78.897 C22.152,84.656 33.8,80.236 33.8,80.236 C33.8,80.236 28.249,68.744 19.344,64.779 Z" id="left-4"></path>
                            <path d="M22.685,41.236 C18.9246131,35.799641 14.0163724,31.2553024 8.30688893,27.924 C8.30688893,27.924 8.229,42.471 12.207,49.816 C16.185,57.161 26.104,60.424 26.104,60.424 C26.104,60.424 28.132,48.867 22.685,41.236 Z" id="left-3"></path>
                            <path d="M32.175,26.247 C30.875,20.592 29.198,19.942 25.675,11.674 C25.675,11.674 21.034,22.373 22.321,28.808 C23.0522816,32.5645483 25.4016599,35.8080219 28.743,37.674 C31.8622768,34.7615626 33.1733924,30.3961436 32.175,26.247 L32.175,26.247 Z" id="left-2"></path>
                            <path d="M45.708,14.781 C44.1444516,18.7078339 41.0311931,21.8163897 37.102,23.374 C36.0731443,18.9574037 36.2800366,14.3428051 37.7,10.036 C39.3724894,5.95140084 42.2237052,2.45752999 45.89,0 C45.89,0 48.1,8.32 45.708,14.781 Z" id="left-1"></path>
                        </g>
                    </g>
                </g>
            </g>
        </g>
    </g>
</svg>