<?xml version="1.0" encoding="UTF-8"?>
<svg width="234px" height="234px" viewBox="0 0 234 234" version="1.1" xmlns="http://www.w3.org/2000/svg" xmlns:xlink="http://www.w3.org/1999/xlink">
    <!-- Generator: Sketch 57.1 (83088) - https://sketch.com -->
    <title>standard/180-default/background/certificate</title>
    <desc>Created with Sketch.</desc>
    <g id="Symbols" stroke="none" stroke-width="1" fill="none" fill-rule="evenodd">
        <g id="standard/234-large/background/certificate">
            <g id="standard/180-default/background/certificate">
                <g id="certificate-icon">
                    <path d="M234,117 C234,181.6178 181.6178,234 117,234 C52.3822,234 0,181.6178 0,117 C0,52.3822 52.3822,0 117,0 C181.6178,0 234,52.3822 234,117" id="🎨background" fill="#0E3128"></path>
                    <g id="icon" transform="translate(52.000000, 58.500000)" fill-rule="nonzero">
                        <g id="diploma">
                            <rect id="border" fill="#64A1C6" x="0" y="0" width="130" height="93.6" rx="5.2"></rect>
                            <rect id="paper" fill="#FFFFFF" x="7.8" y="7.8" width="114.4" height="78"></rect>
                            <path d="M91,24.7 L39,24.7 C38.2820298,24.7 37.7,24.1179702 37.7,23.4 C37.7,22.6820298 38.2820298,22.1 39,22.1 L91,22.1 C91.7179702,22.1 92.3,22.6820298 92.3,23.4 C92.3,24.1179702 91.7179702,24.7 91,24.7 Z" id="line-1" fill="#417369"></path>
                            <path d="M91,36.4 L39,36.4 C38.2820298,36.4 37.7,35.8179702 37.7,35.1 C37.7,34.3820298 38.2820298,33.8 39,33.8 L91,33.8 C91.7179702,33.8 92.3,34.3820298 92.3,35.1 C92.3,35.8179702 91.7179702,36.4 91,36.4 Z" id="line-2" fill="#417369"></path>
                            <path d="M84.5,48.1 L45.5,48.1 C44.7820298,48.1 44.2,47.5179702 44.2,46.8 C44.2,46.0820298 44.7820298,45.5 45.5,45.5 L84.5,45.5 C85.2179702,45.5 85.8,46.0820298 85.8,46.8 C85.8,47.5179702 85.2179702,48.1 84.5,48.1 Z" id="line-3" fill="#417369"></path>
                        </g>
                        <g id="ribbon" transform="translate(81.926200, 54.600000)">
                            <path d="M15.5737998,-5.32907052e-15 C8.52421723,0.0124718777 2.3590159,4.75119375 0.533510908,11.5603274 C-1.29199409,18.369461 1.67589029,25.5567313 7.77379976,29.094 L7.77379976,39 L23.3737998,39 L23.3737998,29.094 C29.4717092,25.5567313 32.4395936,18.369461 30.6140886,11.5603274 C28.7885836,4.75119375 22.6233823,0.0124718777 15.5737998,-5.32907052e-15 L15.5737998,-5.32907052e-15 Z" id="shadow" fill="#183028" opacity="0.3"></path>
                            <path d="M23.6727998,62.4000017 L23.6727998,62.4000017 C22.7118664,62.4011615 21.8513974,61.8050535 21.5147998,60.905 L18.1737998,52 L14.8327998,60.905 C14.4962021,61.8050535 13.6357331,62.4011615 12.6747998,62.4000017 L12.6747998,62.4000017 C11.4039925,62.4000017 10.3737998,61.3698072 10.3737998,60.099 L10.3737998,14.3 L25.9737998,14.3 L25.9737998,60.099 C25.9737998,61.3698072 24.943607,62.4000017 23.6727998,62.4000017 Z" fill="#40A829"></path>
                            <circle id="medallion-background" fill="#417369" cx="18.1737998" cy="15.6" r="15.6"></circle>
                            <circle id="medallion" fill="#FBE89A" cx="18.1737998" cy="15.6" r="7.8"></circle>
                        </g>
                    </g>
                </g>
            </g>
        </g>
    </g>
</svg>