<svg width="935" height="634" viewBox="0 0 935 634" fill="none" xmlns="http://www.w3.org/2000/svg">
<path opacity="0.07" d="M969.796 -266.595C962.715 -274.684 954.492 -282.079 946.253 -289.103C832.47 -380.33 714.611 -277.312 597.594 -247.35C453.953 -210.714 322.108 -331.268 182.216 -242.532C35.0697 -148.906 -25.3394 61.5244 60.9072 216.524C153.354 382.914 355.009 378.397 515.323 368.804C589.338 364.492 644.611 426.547 696.15 489.189C839.783 664.778 1029.22 606.691 1131.21 404.315C1206.11 255.34 1144.53 87.2779 1077.24 -50.9711C1043.78 -119.903 1022.6 -207.611 969.796 -266.595Z" fill="url(#paint0_linear)"/>
<path d="M1065.46 -46.1668C1061.73 -53.492 1057.02 -60.5168 1052.23 -67.2698C984.974 -156.246 878.271 -101.966 785.891 -101.696C672.521 -101.469 597.373 -215.577 477.012 -176.018C350.355 -134.195 266.104 10.4975 300.984 141.593C338.324 282.297 488.686 316.764 609.347 339.715C665.033 350.397 694.377 406.773 720.843 462.882C794.41 620.005 945.756 612.462 1059.33 481.54C1142.8 385.13 1128.66 248.974 1104.69 133.854C1092.81 76.4698 1093.55 7.46855 1065.46 -46.1668Z" fill="url(#paint1_linear)"/>
<defs>
<linearGradient id="paint0_linear" x1="42.28" y1="-224.46" x2="240.77" y2="81.2411" gradientUnits="userSpaceOnUse">
<stop stop-color="#04FCCF"/>
<stop offset="1" stop-color="#11A9FF"/>
</linearGradient>
<linearGradient id="paint1_linear" x1="1114" y1="603.5" x2="592.013" y2="-169.085" gradientUnits="userSpaceOnUse">
<stop stop-color="#04FCCF"/>
<stop offset="1" stop-color="#11A9FF"/>
</linearGradient>
</defs>
</svg>
